#
# Bunkspeed OBJ File
# http://www.bunkspeed.com
#
mtllib HEX.mtl

##########################
g Root|hex_VISUALIZE_(Default)|Merged_Parts|Part
##########################
v 0.02628157 0.0103 -0.04256136
v 0.05 0.0103 0.001479829
v 0.02628157 0.0003 -0.04256136
v 0.05 0.0003 0.001479829
v -0.02371843 0.0103 -0.04404118
v 0.02628157 0.0103 -0.04256136
v -0.02371843 0.0003 -0.04404118
v 0.02628157 0.0003 -0.04256136
v -0.05 0.0103 -0.001479829
v -0.02371843 0.0103 -0.04404118
v -0.05 0.0003 -0.001479829
v -0.02371843 0.0003 -0.04404118
v -0.02628157 0.0103 0.04256136
v -0.05 0.0103 -0.001479829
v -0.02628157 0.0003 0.04256136
v -0.05 0.0003 -0.001479829
v 0.02371843 0.0103 0.04404118
v -0.02628157 0.0103 0.04256136
v 0.02371843 0.0003 0.04404118
v -0.02628157 0.0003 0.04256136
v 0.05 0.0103 0.001479829
v 0.02371843 0.0103 0.04404118
v 0.05 0.0003 0.001479829
v 0.02371843 0.0003 0.04404118
v -0.02371843 0.0103 -0.04404118
v -0.05 0.0103 -0.001479829
v 0.02628157 0.0103 -0.04256136
v -0.02628157 0.0103 0.04256136
v 0.05 0.0103 0.001479829
v 0.02371843 0.0103 0.04404118
v 0.02371843 0.0003 0.04404118
v -0.02628157 0.0003 0.04256136
v 0.05 0.0003 0.001479829
v -0.05 0.0003 -0.001479829
v 0.02628157 0.0003 -0.04256136
v -0.02371843 0.0003 -0.04404118
vt 0.9256135 0.55
vt 0.4852017 0.55
vt 0.9256135 0.45
vt 0.4852017 0.45
vt 0.7371843 0.55
vt 0.2371843 0.55
vt 0.7371843 0.45
vt 0.2371843 0.45
vt 0.4852017 0.55
vt 0.05958816 0.55
vt 0.4852017 0.45
vt 0.05958816 0.45
vt 0.9256135 0.55
vt 0.4852017 0.55
vt 0.9256135 0.45
vt 0.4852017 0.45
vt 0.7371843 0.55
vt 0.2371843 0.55
vt 0.7371843 0.45
vt 0.2371843 0.45
vt 0.4852017 0.55
vt 0.05958816 0.55
vt 0.4852017 0.45
vt 0.05958816 0.45
vt 0.2628157 0.9404118
vt 0 0.5147983
vt 0.7628157 0.9256135
vt 0.2371843 0.07438648
vt 1 0.4852017
vt 0.7371843 0.05958819
vt 0.2628157 0.05958819
vt 0.7628157 0.07438648
vt 0 0.4852017
vt 1 0.5147983
vt 0.2371843 0.9256135
vt 0.7371843 0.9404118
vn 0.8804381 0 -0.474161
vn 0.8804381 0 -0.474161
vn 0.8804381 0 -0.474161
vn 0.8804381 0 -0.474161
vn 0.02958362 0 -0.9995623
vn 0.02958362 0 -0.9995623
vn 0.02958362 0 -0.9995623
vn 0.02958362 0 -0.9995623
vn -0.8508545 0 -0.5254013
vn -0.8508545 0 -0.5254013
vn -0.8508545 0 -0.5254013
vn -0.8508545 0 -0.5254013
vn -0.8804381 0 0.474161
vn -0.8804381 0 0.474161
vn -0.8804381 0 0.474161
vn -0.8804381 0 0.474161
vn -0.02958362 0 0.9995623
vn -0.02958362 0 0.9995623
vn -0.02958362 0 0.9995623
vn -0.02958362 0 0.9995623
vn 0.8508545 0 0.5254013
vn 0.8508545 0 0.5254013
vn 0.8508545 0 0.5254013
vn 0.8508545 0 0.5254013
vn 0 1 0
vn 0 1 0
vn 0 1 0
vn 0 1 0
vn 0 1 0
vn 0 1 0
vn 0 -1 0
vn 0 -1 0
vn 0 -1 0
vn 0 -1 0
vn 0 -1 0
vn 0 -1 0
usemtl color
f 1/1/1 2/2/2 3/3/3
f 2/2/2 4/4/4 3/3/3
f 5/5/5 6/6/6 7/7/7
f 6/6/6 8/8/8 7/7/7
f 9/9/9 10/10/10 11/11/11
f 10/10/10 12/12/12 11/11/11
f 13/13/13 14/14/14 15/15/15
f 14/14/14 16/16/16 15/15/15
f 17/17/17 18/18/18 19/19/19
f 18/18/18 20/20/20 19/19/19
f 21/21/21 22/22/22 23/23/23
f 22/22/22 24/24/24 23/23/23
f 25/25/25 26/26/26 27/27/27
f 26/26/26 28/28/28 27/27/27
f 27/27/27 28/28/28 29/29/29
f 28/28/28 30/30/30 29/29/29
f 31/31/31 32/32/32 33/33/33
f 32/32/32 34/34/34 33/33/33
f 33/33/33 34/34/34 35/35/35
f 34/34/34 36/36/36 35/35/35
##########################

