#
# Bunkspeed OBJ File
# http://www.bunkspeed.com
#
mtllib J.mtl

##########################
g Root|J_VISUALIZE_(Default)|Merged_Parts|Part
##########################
v -0.04038462 0.0875573 0.02
v -0.04038462 0.107693 0.02
v -0.04038462 0.0875573 0
v -0.04038462 0.107693 0
v -0.001322872 0.0875573 0.02
v -0.04038462 0.0875573 0.02
v -0.001322872 0.0875573 0
v -0.04038462 0.0875573 0
v 0 0.03506862 0.02
v -0.001322872 0.0875573 0.02
v 0 0.03506862 0
v -0.001322872 0.0875573 0
v -0.002645744 0.02002337 0.02
v 0 0.03506862 0.02
v -0.002645744 0.02002337 0
v 0 0.03506862 0
v -0.01674208 0.02002337 0.02
v -0.002645744 0.02002337 0.02
v -0.01674208 0.02002337 0
v -0.002645744 0.02002337 0
v -0.02432127 0.02760255 0.02
v -0.01674208 0.02002337 0.02
v -0.02432127 0.02760255 0
v -0.01674208 0.02002337 0
v -0.04038462 0.02760255 0.02
v -0.02432127 0.02760255 0.02
v -0.04038462 0.02760255 0
v -0.02432127 0.02760255 0
v -0.04038462 0.02760255 0.02
v -0.04038462 0.02760255 0
v -0.03901875 0.02295616 0
v -0.04038462 0.02760255 0.02
v -0.03901875 0.02295616 0
v -0.03901875 0.02295616 0.02
v -0.03702095 0.01854442 0
v -0.03702095 0.01854442 0.02
v -0.03442993 0.01445282 0
v -0.03442993 0.01445282 0.02
v -0.03129588 0.01076062 0
v -0.03129588 0.01076062 0.02
v -0.02767952 0.007539354 0
v -0.02767952 0.007539354 0.02
v -0.02365092 0.004851427 0
v -0.02365092 0.004851427 0.02
v -0.01928812 0.002748918 0
v -0.01928812 0.002748918 0.02
v -0.01467564 0.001272555 0
v -0.01467564 0.001272555 0.02
v -0.009902845 0.0004509427 0
v -0.009902845 0.0004509427 0.02
v -0.005062203 0.0003000014 0
v -0.005062203 0.0003000014 0.02
v -0.0002474932 0.0008226484 0
v -0.0002474932 0.0008226484 0.02
v 0.004448007 0.002008766 0
v 0.004448007 0.002008766 0.02
v 0.008933329 0.003835369 0
v 0.008933329 0.003835369 0.02
v 0.01312158 0.006267074 0
v 0.01312158 0.006267074 0.02
v 0.01693161 0.009256769 0
v 0.01693161 0.009256769 0.02
v 0.02028961 0.01274653 0
v 0.02028961 0.01274653 0.02
v 0.02313052 0.01666875 0
v 0.02313052 0.01666875 0.02
v 0.0253993 0.02094744 0
v 0.0253993 0.02094744 0.02
v 0.02705201 0.02549971 0
v 0.02705201 0.02549971 0.02
v 0.02805662 0.03023736 0
v 0.02805662 0.03023736 0.02
v 0.02839367 0.03506862 0
v 0.02839367 0.03506862 0.02
v 0.02839367 0.0875573 0.02
v 0.02839367 0.03506862 0.02
v 0.02839367 0.0875573 0
v 0.02839367 0.03506862 0
v 0.05961538 0.0875573 0.02
v 0.02839367 0.0875573 0.02
v 0.05961538 0.0875573 0
v 0.02839367 0.0875573 0
v 0.05961538 0.107693 0.02
v 0.05961538 0.0875573 0.02
v 0.05961538 0.107693 0
v 0.05961538 0.0875573 0
v -0.04038462 0.107693 0.02
v 0.05961538 0.107693 0.02
v -0.04038462 0.107693 0
v 0.05961538 0.107693 0
v 0.02839367 0.0875573 0.02
v 0.05961538 0.0875573 0.02
v 0.05961538 0.107693 0.02
v -0.04038462 0.107693 0.02
v -0.04038462 0.0875573 0.02
v -0.001322872 0.0875573 0.02
v 0.05961538 0.107693 0.02
v -0.04038462 0.107693 0.02
v 0.02839367 0.0875573 0.02
v -0.001322872 0.0875573 0.02
v 0.02839367 0.03506862 0.02
v 0 0.03506862 0.02
v -0.009902845 0.0004509427 0.02
v -0.005062203 0.0003000014 0.02
v -0.002645744 0.02002337 0.02
v -0.02432127 0.02760255 0.02
v -0.04038462 0.02760255 0.02
v -0.03901875 0.02295616 0.02
v -0.02767952 0.007539354 0.02
v -0.02365092 0.004851427 0.02
v -0.01674208 0.02002337 0.02
v -0.01928812 0.002748918 0.02
v -0.002645744 0.02002337 0.02
v -0.01467564 0.001272555 0.02
v -0.009902845 0.0004509427 0.02
v -0.002645744 0.02002337 0.02
v 0.008933329 0.003835369 0.02
v 0 0.03506862 0.02
v 0.01312158 0.006267074 0.02
v 0.01693161 0.009256769 0.02
v -0.005062203 0.0003000014 0.02
v -0.0002474932 0.0008226484 0.02
v -0.002645744 0.02002337 0.02
v 0.004448007 0.002008766 0.02
v 0.008933329 0.003835369 0.02
v -0.03901875 0.02295616 0.02
v -0.03702095 0.01854442 0.02
v -0.02432127 0.02760255 0.02
v -0.03442993 0.01445282 0.02
v -0.01674208 0.02002337 0.02
v -0.03129588 0.01076062 0.02
v -0.02767952 0.007539354 0.02
v 0.01693161 0.009256769 0.02
v 0.02028961 0.01274653 0.02
v 0 0.03506862 0.02
v 0.02313052 0.01666875 0.02
v 0.0253993 0.02094744 0.02
v 0.0253993 0.02094744 0.02
v 0.02705201 0.02549971 0.02
v 0 0.03506862 0.02
v 0.02805662 0.03023736 0.02
v 0.02839367 0.03506862 0.02
v 0.05961538 0.107693 0
v 0.05961538 0.0875573 0
v 0.02839367 0.0875573 0
v 0 0.03506862 0
v -0.001322872 0.0875573 0
v 0.02839367 0.0875573 0
v 0.05961538 0.107693 0
v 0.02839367 0.0875573 0
v -0.04038462 0.107693 0
v -0.001322872 0.0875573 0
v -0.04038462 0.0875573 0
v -0.03901875 0.02295616 0
v -0.04038462 0.02760255 0
v -0.02432127 0.02760255 0
v 0.02839367 0.0875573 0
v 0.02839367 0.03506862 0
v 0 0.03506862 0
v 0.02805662 0.03023736 0
v 0.02705201 0.02549971 0
v -0.009902845 0.0004509427 0
v -0.01467564 0.001272555 0
v -0.002645744 0.02002337 0
v -0.01928812 0.002748918 0
v -0.01674208 0.02002337 0
v -0.02365092 0.004851427 0
v -0.02767952 0.007539354 0
v -0.02767952 0.007539354 0
v -0.03129588 0.01076062 0
v -0.01674208 0.02002337 0
v -0.03442993 0.01445282 0
v -0.02432127 0.02760255 0
v -0.03702095 0.01854442 0
v -0.03901875 0.02295616 0
v 0.004448007 0.002008766 0
v -0.0002474932 0.0008226484 0
v -0.002645744 0.02002337 0
v -0.005062203 0.0003000014 0
v -0.009902845 0.0004509427 0
v 0.02705201 0.02549971 0
v 0.0253993 0.02094744 0
v 0 0.03506862 0
v 0.02313052 0.01666875 0
v 0.02028961 0.01274653 0
v 0.02028961 0.01274653 0
v 0.01693161 0.009256769 0
v 0 0.03506862 0
v 0.01312158 0.006267074 0
v -0.002645744 0.02002337 0
v 0.008933329 0.003835369 0
v 0.004448007 0.002008766 0
vt 0.5931159 0.8125042
vt 0.5931159 0.9999999
vt 0.4068841 0.8125042
vt 0.4068841 0.9999999
vt 0.6018525 0.4068841
vt 0.9655795 0.4068841
vt 0.6018525 0.5931159
vt 0.9655795 0.5931159
vt 0.5931159 0.3237511
vt 0.5931159 0.8125042
vt 0.4068841 0.3237511
vt 0.4068841 0.8125042
vt 0.5931159 0.1836559
vt 0.5931159 0.3237511
vt 0.4068841 0.1836559
vt 0.4068841 0.3237511
vt 0.2545701 0.4068841
vt 0.3858294 0.4068841
vt 0.2545701 0.5931159
vt 0.3858294 0.5931159
vt 0.1839958 0.4068841
vt 0.2545701 0.4068841
vt 0.1839958 0.5931159
vt 0.2545701 0.5931159
vt 0.03442055 0.4068841
vt 0.1839958 0.4068841
vt 0.03442055 0.5931159
vt 0.1839958 0.5931159
vt 0.5931159 0.2542301
vt 0.4068841 0.2542301
vt 0.4068841 0.2109648
vt 0.5931159 0.2542301
vt 0.4068841 0.2109648
vt 0.5931159 0.2109648
vt 0.4068841 0.1698846
vt 0.5931159 0.1698846
vt 0.4068841 0.1317853
vt 0.5931159 0.1317853
vt 0.4068841 0.09740496
vt 0.5931159 0.09740496
vt 0.8472748 0.5931159
vt 0.8472748 0.4068841
vt 0.8097621 0.5931159
vt 0.8097621 0.4068841
vt 0.7691375 0.5931159
vt 0.7691375 0.4068841
vt 0.726188 0.5931159
vt 0.726188 0.4068841
vt 0.6817458 0.5931159
vt 0.6817458 0.4068841
vt 0.6366717 0.5931159
vt 0.6366717 0.4068841
vt 0.5918391 0.5931159
vt 0.5918391 0.4068841
vt 0.5481165 0.5931159
vt 0.5481165 0.4068841
vt 0.506351 0.5931159
vt 0.506351 0.4068841
vt 0.4673518 0.5931159
vt 0.4673518 0.4068841
vt 0.4318743 0.5931159
vt 0.4318743 0.4068841
vt 0.5931159 0.1158969
vt 0.4068841 0.1158969
vt 0.5931159 0.1524191
vt 0.4068841 0.1524191
vt 0.5931159 0.1922605
vt 0.4068841 0.1922605
vt 0.5931159 0.2346494
vt 0.4068841 0.2346494
vt 0.5931159 0.2787644
vt 0.4068841 0.2787644
vt 0.5931159 0.3237511
vt 0.4068841 0.3237511
vt 0.4068841 0.8125042
vt 0.4068841 0.3237511
vt 0.5931159 0.8125042
vt 0.5931159 0.3237511
vt 0.03442055 0.4068841
vt 0.3251444 0.4068841
vt 0.03442055 0.5931159
vt 0.3251444 0.5931159
vt 0.4068841 0.9999999
vt 0.4068841 0.8125042
vt 0.5931159 0.9999999
vt 0.5931159 0.8125042
vt 0.03442055 0.4068841
vt 0.9655795 0.4068841
vt 0.03442055 0.5931159
vt 0.9655795 0.5931159
vt 0.6748556 0.8125042
vt 0.9655795 0.8125042
vt 0.9655795 0.9999999
vt 0.03442055 0.9999999
vt 0.03442055 0.8125042
vt 0.3981475 0.8125042
vt 0.9655795 0.9999999
vt 0.03442055 0.9999999
vt 0.6748556 0.8125042
vt 0.3981475 0.8125042
vt 0.6748556 0.3237511
vt 0.4104655 0.3237511
vt 0.3182543 0.001405478
vt 0.3633283 0
vt 0.3858294 0.1836559
vt 0.1839958 0.2542301
vt 0.03442055 0.2542301
vt 0.04713893 0.2109648
vt 0.1527252 0.06740987
vt 0.1902379 0.04238105
vt 0.2545701 0.1836559
vt 0.2308625 0.02280331
vt 0.3858294 0.1836559
vt 0.273812 0.009056032
vt 0.3182543 0.001405478
vt 0.3858294 0.1836559
vt 0.493649 0.03291988
vt 0.4104655 0.3237511
vt 0.5326482 0.05556297
vt 0.5681257 0.08340174
vt 0.3633283 0
vt 0.4081609 0.004866719
vt 0.3858294 0.1836559
vt 0.4518835 0.01591134
vt 0.493649 0.03291988
vt 0.04713893 0.2109648
vt 0.06574166 0.1698846
vt 0.1839958 0.2542301
vt 0.08986819 0.1317853
vt 0.2545701 0.1836559
vt 0.1190512 0.09740496
vt 0.1527252 0.06740987
vt 0.5681257 0.08340174
vt 0.599394 0.1158969
vt 0.4104655 0.3237511
vt 0.6258473 0.1524191
vt 0.6469734 0.1922605
vt 0.6469734 0.1922605
vt 0.6623627 0.2346494
vt 0.4104655 0.3237511
vt 0.6717172 0.2787644
vt 0.6748556 0.3237511
vt 0.03442055 0.9999999
vt 0.03442055 0.8125042
vt 0.3251444 0.8125042
vt 0.5895345 0.3237511
vt 0.6018525 0.8125042
vt 0.3251444 0.8125042
vt 0.03442055 0.9999999
vt 0.3251444 0.8125042
vt 0.9655795 0.9999999
vt 0.6018525 0.8125042
vt 0.9655795 0.8125042
vt 0.9528611 0.2109648
vt 0.9655795 0.2542301
vt 0.8160042 0.2542301
vt 0.3251444 0.8125042
vt 0.3251444 0.3237511
vt 0.5895345 0.3237511
vt 0.3282828 0.2787644
vt 0.3376373 0.2346494
vt 0.6817458 0.001405478
vt 0.726188 0.009056032
vt 0.6141706 0.1836559
vt 0.7691375 0.02280331
vt 0.7454299 0.1836559
vt 0.8097621 0.04238105
vt 0.8472748 0.06740987
vt 0.8472748 0.06740987
vt 0.8809488 0.09740496
vt 0.7454299 0.1836559
vt 0.9101318 0.1317853
vt 0.8160042 0.2542301
vt 0.9342583 0.1698846
vt 0.9528611 0.2109648
vt 0.5481165 0.01591134
vt 0.5918391 0.004866719
vt 0.6141706 0.1836559
vt 0.6366717 0
vt 0.6817458 0.001405478
vt 0.3376373 0.2346494
vt 0.3530266 0.1922605
vt 0.5895345 0.3237511
vt 0.3741526 0.1524191
vt 0.400606 0.1158969
vt 0.400606 0.1158969
vt 0.4318743 0.08340174
vt 0.5895345 0.3237511
vt 0.4673518 0.05556297
vt 0.6141706 0.1836559
vt 0.506351 0.03291988
vt 0.5481165 0.01591134
vn -1 0 0
vn -1 0 0
vn -1 0 0
vn -1 0 0
vn 0 -1 0
vn 0 -1 0
vn 0 -1 0
vn 0 -1 0
vn -0.9996825 -0.02519499 0
vn -0.9996825 -0.02519499 0
vn -0.9996825 -0.02519499 0
vn -0.9996825 -0.02519499 0
vn -0.9848876 0.1731949 0
vn -0.9848876 0.1731949 0
vn -0.9848876 0.1731949 0
vn -0.9848876 0.1731949 0
vn 0 1 0
vn 0 1 0
vn 0 1 0
vn 0 1 0
vn 0.7071068 0.7071068 0
vn 0.7071068 0.7071068 0
vn 0.7071068 0.7071068 0
vn 0.7071068 0.7071068 0
vn 0 1 0
vn 0 1 0
vn 0 1 0
vn 0 1 0
vn -0.9767071 -0.2145768 0
vn -0.9767071 -0.2145768 0
vn -0.9374517 -0.3481155 0
vn -0.9767071 -0.2145768 0
vn -0.9374517 -0.3481155 0
vn -0.9374517 -0.3481155 0
vn -0.8800344 -0.47491 0
vn -0.8800344 -0.47491 0
vn -0.8055677 -0.5925037 0
vn -0.8055677 -0.5925037 0
vn -0.7154943 -0.6986186 0
vn -0.7154943 -0.6986186 0
vn -0.6115592 -0.7911987 0
vn -0.6115592 -0.7911987 0
vn -0.4957759 -0.8684505 0
vn -0.4957759 -0.8684505 0
vn -0.3703878 -0.9288772 0
vn -0.3703878 -0.9288772 0
vn -0.2378239 -0.9713083 0
vn -0.2378239 -0.9713083 0
vn -0.1006525 -0.9949216 0
vn -0.1006525 -0.9949216 0
vn 0.03846893 -0.9992599 0
vn 0.03846893 -0.9992599 0
vn 0.1768451 -0.9842387 0
vn 0.1768451 -0.9842387 0
vn 0.3117951 -0.9501494 0
vn 0.3117951 -0.9501494 0
vn 0.4407045 -0.8976523 0
vn 0.4407045 -0.8976523 0
vn 0.5610759 -0.8277644 0
vn 0.5610759 -0.8277644 0
vn 0.6705772 -0.7418398 0
vn 0.6705772 -0.7418398 0
vn 0.767087 -0.641543 0
vn 0.767087 -0.641543 0
vn 0.8487357 -0.5288174 0
vn 0.8487357 -0.5288174 0
vn 0.9139413 -0.4058465 0
vn 0.9139413 -0.4058465 0
vn 0.9614405 -0.275013 0
vn 0.9614405 -0.275013 0
vn 0.9903132 -0.1388515 0
vn 0.9903132 -0.1388515 0
vn 1 1.224647E-16 0
vn 1 1.224647E-16 0
vn 1 0 0
vn 1 0 0
vn 1 0 0
vn 1 0 0
vn 0 -1 0
vn 0 -1 0
vn 0 -1 0
vn 0 -1 0
vn 1 0 0
vn 1 0 0
vn 1 0 0
vn 1 0 0
vn 0 1 0
vn 0 1 0
vn 0 1 0
vn 0 1 0
vn 0 0 1
vn 0 0 1
vn 0 0 1
vn 0 0 1
vn 0 0 1
vn 0 0 1
vn 0 0 1
vn 0 0 1
vn 0 0 1
vn 0 0 1
vn 0 0 1
vn 0 0 1
vn 0 0 1
vn 0 0 1
vn 0 0 1
vn 0 0 1
vn 0 0 1
vn 0 0 1
vn 0 0 1
vn 0 0 1
vn 0 0 1
vn 0 0 1
vn 0 0 1
vn 0 0 1
vn 0 0 1
vn 0 0 1
vn 0 0 1
vn 0 0 1
vn 0 0 1
vn 0 0 1
vn 0 0 1
vn 0 0 1
vn 0 0 1
vn 0 0 1
vn 0 0 1
vn 0 0 1
vn 0 0 1
vn 0 0 1
vn 0 0 1
vn 0 0 1
vn 0 0 1
vn 0 0 1
vn 0 0 1
vn 0 0 1
vn 0 0 1
vn 0 0 1
vn 0 0 1
vn 0 0 1
vn 0 0 1
vn 0 0 1
vn 0 0 1
vn 0 0 1
vn 0 0 -1
vn 0 0 -1
vn 0 0 -1
vn 0 0 -1
vn 0 0 -1
vn 0 0 -1
vn 0 0 -1
vn 0 0 -1
vn 0 0 -1
vn 0 0 -1
vn 0 0 -1
vn 0 0 -1
vn 0 0 -1
vn 0 0 -1
vn 0 0 -1
vn 0 0 -1
vn 0 0 -1
vn 0 0 -1
vn 0 0 -1
vn 0 0 -1
vn 0 0 -1
vn 0 0 -1
vn 0 0 -1
vn 0 0 -1
vn 0 0 -1
vn 0 0 -1
vn 0 0 -1
vn 0 0 -1
vn 0 0 -1
vn 0 0 -1
vn 0 0 -1
vn 0 0 -1
vn 0 0 -1
vn 0 0 -1
vn 0 0 -1
vn 0 0 -1
vn 0 0 -1
vn 0 0 -1
vn 0 0 -1
vn 0 0 -1
vn 0 0 -1
vn 0 0 -1
vn 0 0 -1
vn 0 0 -1
vn 0 0 -1
vn 0 0 -1
vn 0 0 -1
vn 0 0 -1
vn 0 0 -1
vn 0 0 -1
usemtl color
f 1/1/1 2/2/2 3/3/3
f 2/2/2 4/4/4 3/3/3
f 5/5/5 6/6/6 7/7/7
f 6/6/6 8/8/8 7/7/7
f 9/9/9 10/10/10 11/11/11
f 10/10/10 12/12/12 11/11/11
f 13/13/13 14/14/14 15/15/15
f 14/14/14 16/16/16 15/15/15
f 17/17/17 18/18/18 19/19/19
f 18/18/18 20/20/20 19/19/19
f 21/21/21 22/22/22 23/23/23
f 22/22/22 24/24/24 23/23/23
f 25/25/25 26/26/26 27/27/27
f 26/26/26 28/28/28 27/27/27
f 29/29/29 30/30/30 31/31/31
f 32/32/32 33/33/33 34/34/34
f 33/33/33 35/35/35 34/34/34
f 34/34/34 35/35/35 36/36/36
f 35/35/35 37/37/37 36/36/36
f 36/36/36 37/37/37 38/38/38
f 37/37/37 39/39/39 38/38/38
f 38/38/38 39/39/39 40/40/40
f 39/39/39 41/41/41 40/40/40
f 40/40/40 41/41/41 42/42/42
f 41/41/41 43/43/43 42/42/42
f 42/42/42 43/43/43 44/44/44
f 43/43/43 45/45/45 44/44/44
f 44/44/44 45/45/45 46/46/46
f 45/45/45 47/47/47 46/46/46
f 46/46/46 47/47/47 48/48/48
f 47/47/47 49/49/49 48/48/48
f 48/48/48 49/49/49 50/50/50
f 49/49/49 51/51/51 50/50/50
f 50/50/50 51/51/51 52/52/52
f 51/51/51 53/53/53 52/52/52
f 52/52/52 53/53/53 54/54/54
f 53/53/53 55/55/55 54/54/54
f 54/54/54 55/55/55 56/56/56
f 55/55/55 57/57/57 56/56/56
f 56/56/56 57/57/57 58/58/58
f 57/57/57 59/59/59 58/58/58
f 58/58/58 59/59/59 60/60/60
f 59/59/59 61/61/61 60/60/60
f 60/60/60 61/61/61 62/62/62
f 61/61/61 63/63/63 62/62/62
f 62/62/62 63/63/63 64/64/64
f 63/63/63 65/65/65 64/64/64
f 64/64/64 65/65/65 66/66/66
f 65/65/65 67/67/67 66/66/66
f 66/66/66 67/67/67 68/68/68
f 67/67/67 69/69/69 68/68/68
f 68/68/68 69/69/69 70/70/70
f 69/69/69 71/71/71 70/70/70
f 70/70/70 71/71/71 72/72/72
f 71/71/71 73/73/73 72/72/72
f 72/72/72 73/73/73 74/74/74
f 75/75/75 76/76/76 77/77/77
f 76/76/76 78/78/78 77/77/77
f 79/79/79 80/80/80 81/81/81
f 80/80/80 82/82/82 81/81/81
f 83/83/83 84/84/84 85/85/85
f 84/84/84 86/86/86 85/85/85
f 87/87/87 88/88/88 89/89/89
f 88/88/88 90/90/90 89/89/89
f 91/91/91 92/92/92 93/93/93
f 94/94/94 95/95/95 96/96/96
f 97/97/97 98/98/98 99/99/99
f 98/98/98 100/100/100 99/99/99
f 99/99/99 100/100/100 101/101/101
f 100/100/100 102/102/102 101/101/101
f 103/103/103 104/104/104 105/105/105
f 106/106/106 107/107/107 108/108/108
f 109/109/109 110/110/110 111/111/111
f 110/110/110 112/112/112 111/111/111
f 111/111/111 112/112/112 113/113/113
f 112/112/112 114/114/114 113/113/113
f 113/113/113 114/114/114 115/115/115
f 116/116/116 117/117/117 118/118/118
f 117/117/117 119/119/119 118/118/118
f 118/118/118 119/119/119 120/120/120
f 121/121/121 122/122/122 123/123/123
f 122/122/122 124/124/124 123/123/123
f 123/123/123 124/124/124 125/125/125
f 126/126/126 127/127/127 128/128/128
f 127/127/127 129/129/129 128/128/128
f 128/128/128 129/129/129 130/130/130
f 129/129/129 131/131/131 130/130/130
f 130/130/130 131/131/131 132/132/132
f 133/133/133 134/134/134 135/135/135
f 134/134/134 136/136/136 135/135/135
f 135/135/135 136/136/136 137/137/137
f 138/138/138 139/139/139 140/140/140
f 139/139/139 141/141/141 140/140/140
f 140/140/140 141/141/141 142/142/142
f 143/143/143 144/144/144 145/145/145
f 146/146/146 147/147/147 148/148/148
f 149/149/149 150/150/150 151/151/151
f 150/150/150 152/152/152 151/151/151
f 151/151/151 152/152/152 153/153/153
f 154/154/154 155/155/155 156/156/156
f 157/157/157 158/158/158 159/159/159
f 158/158/158 160/160/160 159/159/159
f 159/159/159 160/160/160 161/161/161
f 162/162/162 163/163/163 164/164/164
f 163/163/163 165/165/165 164/164/164
f 164/164/164 165/165/165 166/166/166
f 165/165/165 167/167/167 166/166/166
f 166/166/166 167/167/167 168/168/168
f 169/169/169 170/170/170 171/171/171
f 170/170/170 172/172/172 171/171/171
f 171/171/171 172/172/172 173/173/173
f 172/172/172 174/174/174 173/173/173
f 173/173/173 174/174/174 175/175/175
f 176/176/176 177/177/177 178/178/178
f 177/177/177 179/179/179 178/178/178
f 178/178/178 179/179/179 180/180/180
f 181/181/181 182/182/182 183/183/183
f 182/182/182 184/184/184 183/183/183
f 183/183/183 184/184/184 185/185/185
f 186/186/186 187/187/187 188/188/188
f 187/187/187 189/189/189 188/188/188
f 188/188/188 189/189/189 190/190/190
f 189/189/189 191/191/191 190/190/190
f 190/190/190 191/191/191 192/192/192
##########################

